# xmcd CD database file
#
# Track frame offsets:
#	150
#	12695
#	29050
#	48877
#	69100
#	87070
#	105335
#	118955
#	137125
#	149647
#	165962
#	178455
#
# Disc length: 2625 seconds
#
# Revision: 2
# Processed by: cddbd v1.5.1PL2 Copyright (c) Steve Scherf et al.
# Submitted via: CDex 1.51
#
DISCID=a80a3f0c
DTITLE=Mixt Company - A Personal Touch
DYEAR=2001
DGENRE=Country
TTITLE0=Less Traveled Road
TTITLE1=Lovin' Him Was Easier
TTITLE2=When The Roses Bloom
TTITLE3=Train of Heartache
TTITLE4=White Dove
TTITLE5=If It's Just A Cabin
TTITLE6=Daddy's Old Guitar
TTITLE7=Far Side Bank of Jordan
TTITLE8=Gypsy Moon
TTITLE9=There Goes My Heart Again
TTITLE10=Old Fashioned Feeling
TTITLE11=Listen, Listen
EXTD=YEAR: 2001
EXTT0=
EXTT1=
EXTT2=
EXTT3=
EXTT4=
EXTT5=
EXTT6=
EXTT7=
EXTT8=
EXTT9=
EXTT10=
EXTT11=
PLAYORDER=
